# xmcd
#
# Track frame offsets:
#	150
#	16486
#	32101
#	51420
#	71230
#	84109
#	100606
#	118332
#	136572
#	151165
#	168892
#	186785
#	199765
#	214925
#	232733
#	248310
#	259260
#	277353
#	292765
#
# Disc length: 4109 seconds
#
# Revision: 2
# Processed by: cddbd v1.5.2PL0 Copyright (c) Steve Scherf et al.
# Submitted via: EasyCDDAExtractor 11.5.0.1
#
DISCID=03100b13
DTITLE=Various Artist - NCT 071
DYEAR=2005
DGENRE=Country
TTITLE0=Toby Keith - Honkytonk U
TTITLE1=Gretchen Wilson - Homewrecker
TTITLE2=Bobby Pinson - Don't Ask Me How I Know
TTITLE3=Rascal Flatts - Fast Cars And Freedom
TTITLE4=Deryl Dodd - Love Or Something Like It
TTITLE5=Pat Green  - Baby Doll
TTITLE6=Cross Canadian Ragweed - Lonely Girl
TTITLE7=Kevin Fowler - Hard Man To Love
TTITLE8=Brian McComas - The Middle Of Nowhere
TTITLE9=Lisa Brokop - Hey Do You Know Me
TTITLE10=Big and Rich  - Big Time
TTITLE11=Trent Willmon - The Good Life
TTITLE12=David Ball - Happy With The One I've Got
TTITLE13=Hanna McCuen - Something Like A Broken Heart
TTITLE14=Diamond Rio - One Believer
TTITLE15=Dallas Wayne - 3:30 In The Afternoon
TTITLE16=Jason Boland and The Stragglers - If You Want To Hear A Love Song
TTITLE17=Gord Bamford - My Heart's A Genius
TTITLE18=Jon Randall - Baby Won't You Come Home
EXTD=
EXTT0=
EXTT1=
EXTT2=
EXTT3=
EXTT4=
EXTT5=
EXTT6=
EXTT7=
EXTT8=
EXTT9=
EXTT10=
EXTT11=
EXTT12=
EXTT13=
EXTT14=
EXTT15=
EXTT16=
EXTT17=
EXTT18=
PLAYORDER=
